
<svg xmlns="http://www.w3.org/2000/svg" viewBox="0 0 400 400" width="400" height="400" role="img" aria-label="MC series sigil — sample scatter in unit square">
  
  <rect x="60" y="60" width="280" height="280" fill="none" stroke="#e8e8e8" stroke-width="4" stroke-linejoin="miter"></rect>
  
  <ellipse cx="210" cy="170" rx="96" ry="64" fill="#ffd166" fill-opacity="0.14"></ellipse>
  <ellipse cx="210" cy="170" rx="60" ry="40" fill="#ffd166" fill-opacity="0.22"></ellipse>
  
  <g fill="#ffd166">
    
    <circle cx="195" cy="162" r="7"></circle>
    <circle cx="225" cy="148" r="7"></circle>
    <circle cx="175" cy="180" r="7"></circle>
    <circle cx="240" cy="185" r="7"></circle>
    <circle cx="210" cy="200" r="7"></circle>
    <circle cx="260" cy="172" r="7"></circle>
    <circle cx="200" cy="135" r="7"></circle>
    <circle cx="232" cy="210" r="7"></circle>
    <circle cx="155" cy="155" r="7"></circle>
    <circle cx="280" cy="160" r="7"></circle>
  </g>
  
  <g fill="#5e6c8c">
    <circle cx="95" cy="110" r="6"></circle>
    <circle cx="110" cy="300" r="6"></circle>
    <circle cx="300" cy="305" r="6"></circle>
    <circle cx="320" cy="95" r="6"></circle>
    <circle cx="85" cy="250" r="6"></circle>
    <circle cx="290" cy="265" r="6"></circle>
  </g>
</svg>